. 
  
http://www.torrenting.com/        :     Greatest Movie Tracker on The Net!!!
 
http://www.Torrenting.com          :     Once & For all ;)


               www . Torrenting . Com 

(((((((((((((= Enjoy No RAR releases =))))))))))))))))))))


...................................NFO:....................................

.[IMG]http://www.ionlywatch18s.com/wp-content/uploads/2011/06/Ghosted-DVD.jpg[/IMG]


...::::Ghosted 2011 DVDRiP XViD - ORPHiC::::...


...::::Video Source::::...wob
...::::Audio SOurce::::...wob

...::::Language/sub::::...English
...::::IMDB./.Info ::::...http://www.imdb.com/title/tt1628039/
...::::IMDB./.Plot ::::...Rating 5.7 

...::::Video::::...

ID                               : 0
Format                           : MPEG-4 Visual
Format profile                   : Advanced Simple@L5
Format settings, BVOP            : 2
Format settings, QPel            : No
Format settings, GMC             : No warppoints
Format settings, Matrix          : Default (H.263)
Muxing mode                      : Packed bitstream
Codec ID                         : XVID
Codec ID/Hint                    : XviD
Duration                         : 1h 37mn
Bit rate                         : 1 892 Kbps
Width                            : 720 pixels
Height                           : 304 pixels
Display aspect ratio             : 2.35:1
Frame rate                       : 25.000 fps
Color space                      : YUV
Chroma subsampling               : 4:2:0
Bit depth                        : 8 bits
Scan type                        : Progressive
Compression mode                 : Lossy
Bits/(Pixel*Frame)               : 0.346
Stream size                      : 1.29 GiB (88%)
Writing library                  : XviD 1.2.1 (UTC 2008-12-04)


...::::Audio::::...

ID                               : 1
Format                           : MPEG Audio
Format version                   : Version 1
Format profile                   : Layer 3
Mode                             : Joint stereo
Codec ID                         : 55
Codec ID/Hint                    : MP3
Duration                         : 1h 37mn
Bit rate mode                    : Constant
Bit rate                         : 256 Kbps
Channel(s)                       : 2 channels
Sampling rate                    : 48.0 KHz
Compression mode                 : Lossy
Stream size                      : 179 MiB (12%)
Alignment                        : Aligned on interleaves
Interleave, duration             : 40 ms (1.00 video frame)
Interleave, preload duration     : 504 ms
Writing library                  : LAME3.98r
Encoding settings                : -m j -V 4 -q 2 -lowpass 19.7




...::::NOTES::::...
simple rip from dvd quality isnt the best, neither was source
audio is very low aswell but hey... enjoy ;) more to come...


                      




                     ...::::ORPHiC::::...
                   ::::...REVEALiNG...::::
                   ...::::BiT BY BiT::::...

[img]http://www.leetleech.org/images/54987213477518096485.png[/img]
[img]http://www.leetleech.org/images/47191803177555201191.png[/img]
[img]http://www.leetleech.org/images/82245289811960066840.png[/img]